HIERARCHY
ROOT Hips
{
    OFFSET 0.000000 0.000000 0.000000
    CHANNELS 6 Xposition Yposition Zposition Zrotation Xrotation Yrotation
    JOINT Spine
    {
        OFFSET -0.000000 8.185774 0.000000
        CHANNELS 3 Zrotation Xrotation Yrotation
        JOINT Spine1
        {
            OFFSET -0.000000 23.949169 0.000000
            CHANNELS 3 Zrotation Xrotation Yrotation
            JOINT Neck
            {
                OFFSET -0.000000 23.850817 2.168256
                CHANNELS 3 Zrotation Xrotation Yrotation
                JOINT Head
                {
                    OFFSET -0.000000 13.975711 -1.996530
                    CHANNELS 3 Zrotation Xrotation Yrotation
                    End Site
                    {
                        OFFSET -0.000000 24.956627 0.000000
                    }
                }
            }
            JOINT LeftShoulder
            {
                OFFSET 3.979389 22.161966 -0.249083
                CHANNELS 3 Zrotation Xrotation Yrotation
                JOINT LeftArm
                {
                    OFFSET 10.812937 0.000000 0.000000
                    CHANNELS 3 Zrotation Xrotation Yrotation
                    JOINT LeftForeArm
                    {
                        OFFSET 31.697208 0.000000 0.000000
                        CHANNELS 3 Zrotation Xrotation Yrotation
                        JOINT LeftHand
                        {
                            OFFSET 27.047384 0.000000 0.000000
                            CHANNELS 3 Zrotation Xrotation Yrotation
                            End Site
                            {
                                OFFSET 14.973977 0.000000 0.000000
                            }
                        }
                    }
                }
            }
            JOINT RightShoulder
            {
                OFFSET -4.006446 22.161966 -0.249083
                CHANNELS 3 Zrotation Xrotation Yrotation
                JOINT RightArm
                {
                    OFFSET -10.812937 0.000000 0.000000
                    CHANNELS 3 Zrotation Xrotation Yrotation
                    JOINT RightForeArm
                    {
                        OFFSET -31.697208 0.000000 0.000000
                        CHANNELS 3 Zrotation Xrotation Yrotation
                        JOINT RightHand
                        {
                            OFFSET -27.047384 0.000000 0.000000
                            CHANNELS 3 Zrotation Xrotation Yrotation
                            End Site
                            {
                                OFFSET -14.973977 0.000000 0.000000
                            }
                        }
                    }
                }
            }
        }
    }
    JOINT LeftUpLeg
    {
        OFFSET 9.982651 0.000000 0.000000
        CHANNELS 3 Zrotation Xrotation Yrotation
        JOINT LeftLeg
        {
            OFFSET -0.000000 -38.511635 0.000000
            CHANNELS 3 Zrotation Xrotation Yrotation
            JOINT LeftFoot
            {
                OFFSET -0.000000 -44.789326 0.000000
                CHANNELS 3 Zrotation Xrotation Yrotation
                JOINT LeftToeBase
                {
                    OFFSET -0.000000 -6.488723 14.973977
                    CHANNELS 3 Zrotation Xrotation Yrotation
                    End Site
                    {
                        OFFSET -0.000000 0.000000 3.993060
                    }
                }
            }
        }
    }
    JOINT RightUpLeg
    {
        OFFSET -9.982651 0.000000 0.000000
        CHANNELS 3 Zrotation Xrotation Yrotation
        JOINT RightLeg
        {
            OFFSET -0.000000 -38.511635 0.000000
            CHANNELS 3 Zrotation Xrotation Yrotation
            JOINT RightFoot
            {
                OFFSET -0.000000 -44.789326 0.000000
                CHANNELS 3 Zrotation Xrotation Yrotation
                JOINT RightToeBase
                {
                    OFFSET -0.000000 -6.488723 14.973977
                    CHANNELS 3 Zrotation Xrotation Yrotation
                    End Site
                    {
                        OFFSET -0.000000 0.000000 3.993060
                    }
                }
            }
        }
    }
}
MOTION
Frames:    11
Frame Time:    0.008333
-0.633758    94.753944    240.729599    -0.435481    -1.104780    179.703491    0.642483    -7.333968    -0.058720    -0.253569    -1.368483    -0.103583    1.270812    21.872561    -5.155483    3.387821    -1.066170    -4.783861    15.078867    0.532729    -0.675719    -13.247026    -0.569318    -2.077384    2.276631    4.689764    3.273493    -9.454883    4.798984    -2.111688    -16.337925    -2.189747    0.408663    18.768295    -8.343863    0.269288    -0.021916    7.516059    9.259133    -13.520499    9.167962    -13.998853    3.713145    -0.641352    3.021357    0.072212    15.333599    3.716020    -6.742913    -8.535378    12.154081    0.000000    0.000000    0.000000    -0.751024    1.628956    -7.087631    -0.235065    7.099781    0.899452    3.108835    -6.016010    -19.052738    0.000000    0.000000    0.000000    
-0.706118    94.780609    240.680908    -0.469635    -1.137841    179.569641    0.662727    -7.429222    -0.021834    -0.287244    -1.437597    -0.068230    1.272079    21.804192    -5.106129    3.232782    -0.832696    -4.763219    15.048086    0.539880    -0.600872    -13.242825    -0.478712    -2.084034    2.329515    4.648817    3.222303    -9.456838    4.765084    -2.202373    -16.359430    -2.205297    0.458923    18.844053    -8.318586    0.287178    0.004569    7.624722    9.213920    -13.454815    9.264948    -13.990134    3.677048    -0.250392    3.077405    0.000856    14.760569    4.002689    -6.785834    -8.440739    11.827316    0.000000    0.000000    0.000000    -0.791972    1.551003    -6.989630    -0.320912    7.186410    0.997001    3.179641    -5.986466    -19.118082    0.000000    0.000000    0.000000    
-0.786876    94.809357    240.632202    -0.527583    -1.144649    179.442139    0.635760    -7.530264    0.024709    -0.268215    -1.423659    -0.020594    1.113489    21.676247    -5.104381    3.288753    -0.581666    -4.769989    15.029574    0.485106    -0.581662    -13.271903    -0.353608    -2.035478    2.388983    4.653206    3.173200    -9.536008    4.778019    -2.294702    -16.448856    -2.210162    0.460932    18.914309    -8.336798    0.316425    0.067738    7.713705    9.143044    -13.572615    9.358291    -13.950498    3.621942    0.174182    3.083202    -0.177138    14.060495    4.219555    -6.659506    -8.224388    11.793335    0.000000    0.000000    0.000000    -0.877883    1.491665    -6.857936    -0.366749    7.355168    1.098080    3.253670    -6.091822    -19.175352    0.000000    0.000000    0.000000    
-0.865589    94.821785    240.589218    -0.571056    -1.174112    179.315109    0.622494    -7.622294    0.065697    -0.246030    -1.456461    0.022975    1.027648    21.534826    -5.090629    3.215828    -0.344000    -4.778889    14.998040    0.483268    -0.551297    -13.268696    -0.332419    -1.995555    2.394156    4.680781    3.121065    -9.545444    4.811614    -2.353456    -16.497517    -2.202223    0.504307    18.925331    -8.306129    0.312633    0.101330    7.795733    9.085375    -13.350412    9.398670    -13.852275    3.612605    0.585818    3.131441    -0.374893    13.386909    4.335361    -6.561717    -8.093949    11.751460    0.000000    0.000000    0.000000    -0.959867    1.416548    -6.738206    -0.397495    7.487296    1.626193    3.248218    -6.195586    -19.655510    0.000000    0.000000    0.000000    
-0.949088    94.829620    240.540100    -0.634458    -1.170114    179.237854    0.577109    -7.673280    0.098049    -0.224164    -1.509437    0.056013    1.030162    21.511734    -5.121184    3.057477    -0.267130    -4.835858    14.933527    0.489296    -0.529342    -13.223425    -0.262171    -2.004069    2.414973    4.702277    3.103421    -9.613435    4.835083    -2.362808    -16.483967    -2.156102    0.522544    18.860521    -8.282064    0.313611    0.155178    7.838732    9.019998    -13.515656    9.457201    -13.850489    3.527325    0.997780    3.210996    -0.455867    12.756153    4.400037    -6.482384    -7.956810    11.655382    0.000000    0.000000    0.000000    -1.077217    1.337238    -6.374845    -0.383457    7.627477    0.878611    3.327337    -6.141290    -19.257942    0.000000    0.000000    0.000000    
-1.040392    94.833374    240.488312    -0.689079    -1.121091    179.200287    0.602349    -7.695585    0.093778    -0.288416    -1.512051    0.049528    1.010573    21.451874    -5.109923    2.921721    -0.251457    -4.845746    14.898228    0.486898    -0.474593    -13.169105    -0.291768    -1.993507    2.404136    4.769347    3.111532    -9.659452    4.905580    -2.390556    -16.542856    -2.172305    0.555386    18.899153    -8.267455    0.333425    0.177153    7.913502    8.949800    -13.304065    9.502019    -13.830494    3.445797    1.451294    3.272395    -0.544735    12.126582    4.351177    -6.381651    -7.866328    11.689929    0.000000    0.000000    0.000000    -1.160512    1.438347    -6.690220    -0.480833    7.527881    1.291662    3.343423    -6.065615    -19.387476    0.000000    0.000000    0.000000    
-1.119311    94.822235    240.442703    -0.714192    -1.104597    179.139359    0.631437    -7.744182    0.109823    -0.323171    -1.517355    0.062913    0.893010    21.385994    -5.113027    2.931484    -0.230438    -4.854534    14.878810    0.471411    -0.430350    -13.131862    -0.417073    -2.013683    2.356442    4.802704    3.159782    -9.511173    4.934505    -2.371259    -16.571157    -2.212342    0.594700    18.890011    -8.217367    0.297920    0.187112    7.955166    8.896497    -13.252573    9.537377    -13.837330    3.384808    1.752448    4.290672    -0.400073    11.732425    3.257505    -6.329852    -7.912822    11.788376    0.000000    0.000000    0.000000    -1.221801    1.445616    -6.680906    -0.519716    7.571153    1.281778    3.386561    -6.111786    -19.330313    0.000000    0.000000    0.000000    
-1.198214    94.809456    240.396286    -0.729311    -1.072619    179.105453    0.643973    -7.775647    0.122273    -0.313102    -1.521370    0.074255    0.842086    21.304308    -5.131284    2.818235    -0.221170    -4.893276    14.847309    0.449236    -0.417833    -13.114618    -0.479828    -2.027558    2.353498    4.783379    3.222821    -9.640176    4.924360    -2.462906    -16.629753    -2.215752    0.651169    18.863342    -8.276011    0.222839    0.237720    7.954064    8.847212    -13.385442    9.549641    -13.845986    3.350936    2.246793    4.061783    -0.573614    10.992643    3.502221    -6.176249    -7.829602    11.827848    0.000000    0.000000    0.000000    -1.268417    1.467095    -6.741116    -0.598107    7.452514    -0.611551    3.595967    -5.704268    -17.528488    0.000000    0.000000    0.000000    
-1.286393    94.797668    240.350861    -0.761924    -1.017861    179.111969    0.631203    -7.765755    0.126773    -0.290467    -1.546678    0.079852    0.846123    21.231409    -5.176960    2.644059    -0.257662    -4.965544    14.811319    0.430242    -0.434385    -13.104642    -0.543834    -2.039289    2.324903    4.784648    3.293046    -9.627460    4.927692    -2.498081    -16.667849    -2.189036    0.654848    18.800837    -8.264784    0.178737    0.252489    7.926376    8.809011    -13.341607    9.508529    -13.784548    3.258037    2.766855    3.734162    -0.687475    10.212075    3.923071    -6.062532    -7.687562    11.749633    0.000000    0.000000    0.000000    -1.343138    1.540027    -6.892708    -0.642302    7.460593    -0.608720    3.681795    -5.747270    -17.423365    0.000000    0.000000    0.000000    
-1.358188    94.770226    240.298218    -0.749987    -0.957651    179.084061    0.676254    -7.782425    0.143917    -0.292234    -1.511813    0.094434    0.581383    21.665932    -5.207152    3.009959    -1.188800    -4.930089    14.794032    0.399230    -0.432846    -13.095396    -0.583934    -2.040916    2.303990    4.747046    3.352458    -9.600636    4.890269    -2.514290    -16.698959    -2.210463    0.649490    18.746664    -8.241371    0.146594    0.280079    7.913638    8.774357    -13.411726    9.499252    -13.758465    3.225502    3.286130    3.465010    -0.798082    9.468266    4.303389    -5.914340    -7.591739    11.656861    0.000000    0.000000    0.000000    -1.349205    1.621725    -6.965403    -0.709048    7.460137    -0.603391    3.696133    -5.795617    -17.350792    0.000000    0.000000    0.000000    
-1.439508    94.745575    240.249542    -0.757834    -0.900411    179.106888    0.737751    -7.754469    0.125332    -0.354967    -1.579940    0.070984    0.523130    21.710743    -5.243381    2.958566    -1.359334    -4.974082    14.728982    0.427283    -0.419804    -13.021103    -0.624261    -2.032284    2.329509    4.593390    3.429031    -9.677239    4.750051    -2.680253    -16.631279    -2.188658    0.672708    18.628029    -8.191593    0.143204    0.234996    7.814973    8.766744    -13.334452    9.402660    -13.823098    3.148960    3.804711    3.107383    -0.869996    8.692631    4.774129    -5.815121    -7.472891    11.521354    0.000000    0.000000    0.000000    -1.392480    1.717885    -7.074603    -0.753073    7.443739    -0.598557    3.741165    -5.853548    -17.278383    0.000000    0.000000    0.000000    
